<svg xmlns="http://www.w3.org/2000/svg" width="141.082" height="30.133" viewBox="0 0 141.082 30.133">
  <g id="Group_52947" data-name="Group 52947" transform="translate(-145.102 -52)">
    <g id="Group_52841" data-name="Group 52841" transform="translate(145.102 52)">
      <path id="Path_70347" data-name="Path 70347" d="M233.121,80.185a8.369,8.369,0,0,0,3.341-1.63,8.031,8.031,0,0,0,2.406-9.146,7.94,7.94,0,0,0-7.916-5.086,8.028,8.028,0,0,0-5.26,13.64c2.795,2.891,5.671,5.7,8.527,8.536.289.286.319.435.01.728-.88.834-1.73,1.7-2.578,2.568-.191.2-.295.221-.5.011-2.943-2.956-5.973-5.829-8.825-8.871a11.886,11.886,0,0,1-2.761-12.611,11.859,11.859,0,0,1,9.759-8.317,12.459,12.459,0,0,1,14.562,13.129,12.239,12.239,0,0,1-3.649,8.073c-.935.945-1.88,1.88-2.817,2.823-.148.148-.249.281-.471.055C235.724,82.84,233.182,80.273,233.121,80.185Z" transform="translate(-218.819 -59.819)" fill="#fbe159"/>
      <path id="Path_70348" data-name="Path 70348" d="M340.25,184.958a4.364,4.364,0,1,1,4.383-4.362A4.368,4.368,0,0,1,340.25,184.958Z" transform="translate(-327.682 -168.078)" fill="#2d2d2d"/>
    </g>
    <g id="Group_52842" data-name="Group 52842" transform="translate(182.997 55.335)">
      <path id="Path_70349" data-name="Path 70349" d="M285.36,539.97h7.916a7.749,7.749,0,0,1,3.718.914,7.021,7.021,0,0,1,2.712,2.545,7.264,7.264,0,0,1,0,7.377,7.021,7.021,0,0,1-2.712,2.545,7.75,7.75,0,0,1-3.718.914h-4.341v9.073H285.36ZM293.3,550.6a3.9,3.9,0,0,0,2.083-.334,3.609,3.609,0,0,0,1.308-1.387,3.692,3.692,0,0,0,0-3.524,3.479,3.479,0,0,0-1.308-1.37,3.88,3.88,0,0,0-2.042-.522h-4.406V550.6H293.3Z" transform="translate(-257.871 -539.97)" fill="#282828"/>
      <path id="XMLID_10_" d="M168.8,550.6v3.194h7.634a6.765,6.765,0,0,1-1.74,4.025,7.817,7.817,0,0,1-5.893,2.338,8.491,8.491,0,0,1,0-16.98,8.116,8.116,0,0,1,5.75,2.284l2.246-2.246a11.025,11.025,0,0,0-8-3.245,11.685,11.685,0,1,0,0,23.368,10.711,10.711,0,0,0,8.152-3.271,10.571,10.571,0,0,0,2.766-7.465,10.186,10.186,0,0,0-.169-2H168.8Z" transform="translate(-156.95 -539.97)" fill="#282828"/>
      <path id="XMLID_14_" d="M426.594,583.578a4.311,4.311,0,0,1-4.11-2.565l11.327-4.68-.379-.961c-.7-1.895-2.858-5.393-7.244-5.393-4.359,0-7.987,3.425-7.987,8.469a8.278,8.278,0,0,0,8.4,8.469,8.453,8.453,0,0,0,7.056-3.746l-2.886-1.925a4.862,4.862,0,0,1-4.172,2.331Zm-.263-10.423a3.348,3.348,0,0,1,3.207,1.867l-7.653,3.164C421.884,574.628,424.406,573.155,426.331,573.155Z" transform="translate(-362.273 -563.556)" fill="#282828"/>
      <path id="XMLID_3_" d="M379.2,539.97h3.573v23.366H379.2Z" transform="translate(-331.622 -539.97)" fill="#282828"/>
      <path id="Path_70350" data-name="Path 70350" d="M513.21,582.769l2.95-1.488c.051.126.1.248.15.366a3.351,3.351,0,0,0,1.13,1.419,2.389,2.389,0,0,0,1.58.437,1.92,1.92,0,0,0,1.158-.447,1.381,1.381,0,0,0,.223-1.848,2.654,2.654,0,0,0-.972-.85c-.456-.246-.925-.467-1.387-.7a16.265,16.265,0,0,1-2.126-1.229,5.584,5.584,0,0,1-1.205-1.083,4.068,4.068,0,0,1-.85-2.1,4.884,4.884,0,0,1,.253-2.273,4.4,4.4,0,0,1,2.425-2.535,5.668,5.668,0,0,1,1.869-.445,6.948,6.948,0,0,1,1.837.1,4.856,4.856,0,0,1,2.77,1.458,4.909,4.909,0,0,1,1.038,1.76c-.023.013-.045.026-.068.036q-1.381.693-2.762,1.391c-.06.03-.081.017-.111-.039a3.163,3.163,0,0,0-1.01-1.16,1.784,1.784,0,0,0-1.255-.293,2.11,2.11,0,0,0-.612.161,1.138,1.138,0,0,0-.484,1.7,3.347,3.347,0,0,0,.942.878,11.34,11.34,0,0,0,1.413.734,14.351,14.351,0,0,1,2.014,1.1,5.792,5.792,0,0,1,1.25,1.092,3.933,3.933,0,0,1,.828,1.781c.043.221.064.445.086.668a3.248,3.248,0,0,1,.021.475,5.276,5.276,0,0,1-1.06,3.134,4.839,4.839,0,0,1-1.927,1.456,6.469,6.469,0,0,1-2.047.462,6.4,6.4,0,0,1-2.207-.208,5.371,5.371,0,0,1-3.817-3.8A1.2,1.2,0,0,1,513.21,582.769Z" transform="translate(-436.944 -563.551)" fill="#282828"/>
      <path id="Path_70351" data-name="Path 70351" d="M587.12,582.769l2.95-1.488c.052.126.1.248.15.366a3.351,3.351,0,0,0,1.13,1.419,2.39,2.39,0,0,0,1.58.437,1.919,1.919,0,0,0,1.158-.447,1.381,1.381,0,0,0,.223-1.848,2.652,2.652,0,0,0-.972-.85c-.456-.246-.925-.467-1.387-.7a16.272,16.272,0,0,1-2.126-1.229,5.578,5.578,0,0,1-1.205-1.083,4.07,4.07,0,0,1-.85-2.1,4.883,4.883,0,0,1,.253-2.273,4.4,4.4,0,0,1,2.426-2.535,5.669,5.669,0,0,1,1.869-.445,6.946,6.946,0,0,1,1.836.1,4.855,4.855,0,0,1,2.77,1.458,4.91,4.91,0,0,1,1.038,1.76c-.024.013-.045.026-.069.036q-1.381.693-2.761,1.391c-.06.03-.081.017-.111-.039a3.164,3.164,0,0,0-1.01-1.16,1.785,1.785,0,0,0-1.255-.293,2.11,2.11,0,0,0-.612.161,1.138,1.138,0,0,0-.484,1.7,3.345,3.345,0,0,0,.942.878,11.309,11.309,0,0,0,1.413.734,14.352,14.352,0,0,1,2.014,1.1,5.793,5.793,0,0,1,1.25,1.092,3.933,3.933,0,0,1,.828,1.781c.043.221.064.445.086.668a3.257,3.257,0,0,1,.021.475,5.276,5.276,0,0,1-1.06,3.134,4.838,4.838,0,0,1-1.927,1.456,6.469,6.469,0,0,1-2.047.462,6.4,6.4,0,0,1-2.207-.208,5.364,5.364,0,0,1-2.537-1.507,5.31,5.31,0,0,1-1.28-2.29A.812.812,0,0,1,587.12,582.769Z" transform="translate(-495.032 -563.551)" fill="#282828"/>
    </g>
  </g>
</svg>
